# xmcd
#
# Track frame offsets:
#	150
#	17257
#	31316
#	51432
#	71864
#	90111
#	104544
#	125699
#	138051
#	153673
#	170747
#	186054
#	209374
#	229445
#
# Disc length: 3359 seconds
#
# Revision: 1
# Processed by: cddbd v1.5.2PL0 Copyright (c) Steve Scherf et al.
# Submitted via: EasyCDDAExtractor 15.3.0.1
#
DISCID=c10d1d0e
DTITLE=Bluebirds [Swedish] - Walkin' on Thrills
DYEAR=1997
DGENRE=Rhythm and Blues
TTITLE0=Outta Control
TTITLE1=Walkin' on Thrills
TTITLE2=Feelin' Blue
TTITLE3=I Have to Pay
TTITLE4=Can't Live Without U
TTITLE5=Showdown
TTITLE6=Lovebirds
TTITLE7=Frankie's
TTITLE8=Beggin' for My Baby
TTITLE9=Lady Luck
TTITLE10=Goin' Upside Your Head
TTITLE11=How Long
TTITLE12=Mean Ol' Woman
TTITLE13=Bluebird
EXTD=
EXTT0=
EXTT1=
EXTT2=
EXTT3=
EXTT4=
EXTT5=
EXTT6=
EXTT7=
EXTT8=
EXTT9=
EXTT10=
EXTT11=
EXTT12=
EXTT13=
PLAYORDER=
